<svg width="1440" height="874" viewBox="0 0 1440 874" fill="none" xmlns="http://www.w3.org/2000/svg">
<path opacity="0.271043" fill-rule="evenodd" clip-rule="evenodd" d="M-52.1072 -52.1908C-59.7794 -95.7023 -30.7259 -137.195 12.7856 -144.867L1338.83 -378.685C1382.34 -386.357 1423.83 -357.303 1431.51 -313.792L1580.84 533.143C1588.52 576.654 1559.46 618.147 1515.95 625.819L189.907 859.637C146.395 867.309 104.903 838.255 97.2303 794.744L-52.1072 -52.1908Z" fill="#B2EBF2"/>
<mask id="mask0_7_534" style="mask-type:luminance" maskUnits="userSpaceOnUse" x="-54" y="-380" width="1637" height="1241">
<path fill-rule="evenodd" clip-rule="evenodd" d="M-52.1072 -52.1908C-59.7794 -95.7023 -30.7259 -137.195 12.7856 -144.867L1338.83 -378.685C1382.34 -386.357 1423.83 -357.303 1431.51 -313.792L1580.84 533.143C1588.52 576.654 1559.46 618.147 1515.95 625.819L189.907 859.637C146.395 867.309 104.903 838.255 97.2303 794.744L-52.1072 -52.1908Z" fill="white"/>
</mask>
<g mask="url(#mask0_7_534)">
</g>
</svg>
