<svg width="218" height="196" viewBox="0 0 218 196" fill="none" xmlns="http://www.w3.org/2000/svg">
<path d="M200.648 122C200.648 136.999 200.686 151.499 200.636 165.999C200.599 176.994 194.993 182.584 183.94 182.59C133.107 182.617 82.2754 182.621 31.4433 182.587C20.6714 182.579 15.0183 176.948 15.0118 166.29C14.9841 121.291 14.985 76.292 15.0104 31.2931C15.0165 20.5812 20.6373 15.0093 31.4013 15.0054C82.2334 14.9867 133.065 14.9898 183.898 15.0027C195.166 15.0055 200.632 20.5454 200.641 32.0022C200.664 61.8347 200.648 91.6673 200.648 122ZM119.053 58.3499C119.053 58.3499 119.03 58.0771 119.017 57.3297C118.682 56.6248 118.522 55.5076 117.984 55.2788C112.513 52.9523 107.159 49.9503 101.431 48.7148C88.4959 45.9246 82.0215 52.9793 85.0233 65.7487C85.174 66.3894 85.2974 67.0366 85.4436 67.7282C82.5714 68.0895 79.3319 67.6826 77.0242 68.9596C72.435 71.4993 67.927 74.5161 64.1547 78.1371C54.4849 87.4191 55.5606 95.4067 66.6543 102.35C67.7959 103.064 68.7938 105.399 68.5391 106.73C66.7646 116.004 67.6022 124.937 71.9572 133.279C76.4675 141.919 85.0762 142.948 92.0138 136.03C92.8369 135.209 93.6197 134.347 94.5405 133.379C95.8404 134.501 97.1826 135.659 97.8468 136.88C94.588 138.866 97.862 139.091 99.2962 140.355C106.496 144.151 113.615 148.176 122.168 147.863C130.148 147.57 135.251 142.402 133.841 134.674C132.926 129.653 135.348 128.201 138.944 127.286C148.23 124.923 154.581 118.978 159.056 110.913C162.56 104.598 160.357 98.3514 153.937 95.0833C152.071 94.1334 150.147 93.2967 148.185 92.3775C148.98 91.1366 149.883 90.3509 149.986 89.4715C151.065 80.2682 150.846 71.212 146.165 62.8316C141.85 55.1057 135.576 53.2203 128.429 58.2394C124.969 60.6698 122.302 61.5275 119.053 58.3499Z" fill="#025E6D"/>
<path d="M98.5249 136.817C97.1826 135.659 95.8404 134.501 94.5405 133.379C93.6197 134.347 92.8369 135.209 92.0138 136.03C85.0762 142.948 76.4676 141.919 71.9572 133.279C67.6022 124.937 66.7646 116.004 68.5391 106.73C68.7938 105.399 67.7959 103.064 66.6543 102.35C55.5607 95.4066 54.4849 87.4191 64.1547 78.1371C67.9271 74.5161 72.435 71.4993 77.0242 68.9596C79.3319 67.6826 82.5714 68.0895 85.4436 67.7281C85.2974 67.0366 85.174 66.3894 85.0233 65.7487C82.0215 52.9792 88.496 45.9245 101.431 48.7148C107.159 49.9503 112.513 52.9523 117.984 55.2788C118.522 55.5076 118.682 56.6248 118.682 57.7303C117.892 58.095 117.437 58.059 116.918 57.671C110.268 53.8426 103.352 51.8397 95.8305 52.856C90.2342 53.6121 88.8597 56.1719 90.417 60.5947C99.5247 59.683 108.291 58.8055 117.085 58.257C117.752 58.5982 118.391 58.6105 119.03 58.6228C122.302 61.5274 124.969 60.6698 128.429 58.2394C135.576 53.2202 141.85 55.1057 146.165 62.8316C150.846 71.212 151.065 80.2681 149.986 89.4714C149.883 90.3509 148.98 91.1366 148.185 92.3775C150.147 93.2967 152.071 94.1334 153.937 95.0833C160.357 98.3514 162.56 104.597 159.056 110.913C154.581 118.978 148.23 124.923 138.944 127.286C135.348 128.201 132.926 129.653 133.841 134.674C135.251 142.402 130.148 147.57 122.168 147.863C113.615 148.176 106.496 144.151 99.0993 139.764C100.262 139.383 101.628 139.563 102.981 139.808C109.233 140.937 115.462 142.852 121.735 143.003C127.682 143.146 129.118 140.102 127.406 133.925C118.059 137.626 108.533 139.853 98.5249 136.817ZM130.574 66.3191C129.579 67.1748 128.063 67.8442 127.679 68.9184C125.963 73.7129 124.176 78.5421 123.157 83.5109C121.725 90.4894 122.996 91.9094 130.14 93.0648C131.273 93.2481 132.446 93.2814 133.596 93.2472C142.696 92.9768 145.095 89.5651 140.979 81.413C138.339 76.1834 134.404 71.6077 131.637 65.9043C140.072 69.8798 143.985 77.589 147.999 86.4217C148.222 77.9852 146.538 71.159 142.256 64.973C140.442 62.3519 138.491 60.4468 134.965 60.9792C131.388 61.5193 132.222 64.7624 130.574 66.3191ZM131.572 102.005C121.133 105.586 119.96 109.381 126.49 118.44C126.878 118.977 127.29 119.498 127.641 120.058C129.839 123.561 132.752 123.54 135.638 121.278C142.47 115.923 145.362 108.392 147.605 98.7857C141.83 99.9419 137.1 100.889 131.572 102.005ZM95.8074 90.1654C94.1755 85.5814 93.0924 80.6924 90.7615 76.4966C88.2982 72.0626 85.2761 72.1049 81.4776 75.5779C75.5059 81.0379 72.5617 88.0577 70.8106 96.2486C79.8629 97.2684 87.5502 93.8598 95.8074 90.1654ZM77.0517 115.074C80.5791 120.26 84.1066 125.446 87.6341 130.632C88.3584 130.453 89.0827 130.273 89.807 130.094C91.53 124.453 93.6998 118.903 94.8669 113.149C96.452 105.335 93.8895 102.733 85.6844 102.718C84.0229 102.715 82.3622 102.939 80.6991 103.014C76.8411 103.187 75.4614 105.562 75.6411 109.005C75.7344 110.794 76.3591 112.554 77.0517 115.074ZM119.108 66.3461C117.455 65.0854 115.977 63.1841 114.118 62.6759C106.469 60.5845 98.9265 61.7959 89.6764 64.3125C96.5323 71.2557 102.471 77.2701 108.424 83.2989C114.669 78.7555 119.367 74.4083 119.108 66.3461ZM100.503 122.144C97.2537 129.231 98.6251 132.708 105.614 133.888C112.687 135.081 119.71 134.508 126.887 131.99C122.756 123.684 116.252 118.296 108.462 113.084C105.894 115.961 103.406 118.749 100.503 122.144ZM147.783 119.277C150.279 115.475 153.3 111.907 155.124 107.807C156.986 103.619 154.25 100.637 150.418 100.55C147.002 109.135 143.725 117.368 140.381 125.77C142.632 123.816 144.958 121.796 147.783 119.277ZM84.7683 129.735C78.078 124.476 73.2409 117.759 69.6138 110.012C70.9277 117.883 71.2533 125.914 76.6071 132.295C79.3477 135.562 83.2171 136.209 85.5618 133.573C86.0722 132.999 85.4052 131.378 84.7683 129.735ZM65.5741 95.1856C66.6013 95.4715 67.6285 95.7574 67.849 95.8188C70.9733 87.4244 73.9394 79.4552 76.9418 71.3885C71.1186 75.1346 66.5016 79.9111 63.5943 86.2945C62.1471 89.4719 61.9434 92.3588 65.5741 95.1856ZM114.004 99.2446C114.539 95.3041 112.13 92.9427 108.871 93.0092C105.948 93.0688 103.148 95.341 104.28 99.0785C104.711 100.5 106.59 102.526 107.717 102.468C109.836 102.359 111.888 100.937 114.004 99.2446Z" fill="#F3F7F8"/>
<path d="M98.186 136.849C108.533 139.853 118.059 137.626 127.406 133.925C129.118 140.102 127.682 143.146 121.735 143.003C115.462 142.852 109.233 140.937 102.982 139.808C101.628 139.563 100.263 139.383 98.7922 139.575C97.8621 139.091 94.5881 138.866 98.186 136.849Z" fill="#196D7A"/>
<path d="M119.041 58.4864C118.391 58.6106 117.752 58.5983 117.067 58.2809C117.02 57.9758 116.982 58.0232 116.982 58.0232C117.437 58.0591 117.892 58.0951 118.688 58.1041C119.03 58.0771 119.053 58.35 119.041 58.4864Z" fill="#126876"/>
<path d="M131.971 101.921C137.1 100.889 141.83 99.9423 147.604 98.7861C145.362 108.393 142.47 115.924 135.638 121.278C132.751 123.541 129.839 123.562 127.641 120.058C127.29 119.499 126.877 118.977 126.49 118.44C119.959 109.382 121.133 105.586 131.971 101.921Z" fill="#045F6E"/>
<path d="M95.5556 90.4658C87.5502 93.8603 79.8629 97.2689 70.8105 96.2491C72.5616 88.0582 75.5059 81.0384 81.4776 75.5784C85.2761 72.1054 88.2982 72.0631 90.7614 76.4971C93.0924 80.6929 94.1755 85.5818 95.5556 90.4658Z" fill="#045F6E"/>
<path d="M76.8979 114.701C76.3593 112.555 75.7346 110.794 75.6413 109.006C75.4616 105.563 76.8413 103.188 80.6993 103.015C82.3624 102.94 84.0231 102.716 85.6846 102.719C93.8897 102.734 96.4522 105.336 94.8671 113.15C93.7 118.903 91.5302 124.454 89.8072 130.094C89.0829 130.274 88.3586 130.453 87.6343 130.633C84.1068 125.447 80.5793 120.261 76.8979 114.701Z" fill="#045F6E"/>
<path d="M119.284 66.677C119.367 74.4088 114.668 78.756 108.424 83.2994C102.471 77.2706 96.5317 71.2562 89.6758 64.313C98.9259 61.7964 106.469 60.585 114.118 62.6764C115.977 63.1846 117.454 65.0859 119.284 66.677Z" fill="#045F6E"/>
<path d="M131.049 66.7393C134.404 71.6082 138.339 76.184 140.979 81.4135C145.095 89.5656 142.696 92.9773 133.596 93.2477C132.446 93.2819 131.273 93.2486 130.14 93.0653C122.996 91.9099 121.726 90.4899 123.157 83.5114C124.177 78.5426 125.963 73.7134 127.679 68.9189C128.063 67.8447 129.579 67.1753 130.871 66.5449C131.168 66.7703 131.049 66.7393 131.049 66.7393Z" fill="#035F6E"/>
<path d="M100.71 121.841C103.406 118.749 105.894 115.962 108.461 113.085C116.251 118.297 122.756 123.684 126.886 131.991C119.71 134.508 112.686 135.082 105.614 133.888C98.6247 132.709 97.2533 129.232 100.71 121.841Z" fill="#035F6E"/>
<path d="M147.533 119.526C144.957 121.796 142.631 123.816 140.381 125.77C143.725 117.368 147.001 109.135 150.418 100.55C154.249 100.637 156.985 103.619 155.123 107.806C153.3 111.907 150.278 115.475 147.533 119.526Z" fill="#196D7A"/>
<path d="M131.343 66.3217C131.048 66.7389 131.167 66.7698 131.156 66.8029C132.222 64.7625 131.387 61.5194 134.965 60.9792C138.491 60.4469 140.442 62.352 142.256 64.9731C146.537 71.1591 148.222 77.9853 147.999 86.4218C143.984 77.5891 140.071 69.8799 131.343 66.3217Z" fill="#126876"/>
<path d="M85.0239 129.987C85.4047 131.379 86.0717 133 85.5613 133.574C83.2166 136.21 79.3473 135.562 76.6066 132.296C71.2528 125.915 70.9272 117.883 69.6133 110.013C73.2404 117.759 78.0776 124.477 85.0239 129.987Z" fill="#126876"/>
<path d="M117.038 57.9522C108.291 58.8059 99.5242 59.6834 90.4165 60.595C88.8592 56.1723 90.2337 53.6124 95.83 52.8563C103.352 51.84 110.268 53.843 116.918 57.6713C116.982 58.0234 117.02 57.9761 117.038 57.9522Z" fill="#126876"/>
<path d="M65.2356 95.0003C61.9433 92.3589 62.1471 89.472 63.5942 86.2947C66.5015 79.9113 71.1186 75.1347 76.9418 71.3887C73.9394 79.4553 70.9733 87.4245 67.8489 95.8189C67.6285 95.7576 66.6013 95.4717 65.2356 95.0003Z" fill="#126876"/>
<path d="M113.985 99.6526C111.887 100.937 109.835 102.359 107.716 102.468C106.59 102.526 104.71 100.5 104.28 99.0785C103.148 95.341 105.947 93.0688 108.87 93.0092C112.129 92.9427 114.538 95.3041 113.985 99.6526Z" fill="#126876"/>
</svg>
