<svg width="487" height="155" viewBox="0 0 487 155" fill="none" xmlns="http://www.w3.org/2000/svg">
<path d="M245.479 115.209C241.203 119.35 236.584 118.713 234.51 114.023C229.854 103.499 225.279 92.9397 219.942 82.5305C219.942 93.9848 219.942 105.439 219.942 117.311C216.308 117.311 212.904 117.311 208.983 117.311C208.983 109.397 208.983 101.629 208.983 93.8609C208.983 82.211 208.975 70.5611 208.991 58.9112C208.994 56.6483 208.407 53.8967 212.057 53.9276C215.315 53.9551 218.924 52.4752 220.729 57.2425C224.65 67.5983 228.966 77.8043 233.137 88.0653C233.376 88.6535 233.75 89.1866 234.577 90.67C234.577 78.091 234.577 66.4931 234.577 54.3535C237.741 54.3535 241.088 54.3535 245.527 54.3535C245.527 74.3623 245.527 94.57 245.479 115.209Z" fill="#090D43"/>
<path d="M371.534 111.741C371.443 113.974 371.351 115.739 371.256 117.557C367.679 117.557 364.591 117.557 361.5 117.557C361.5 96.2481 361.5 75.2376 361.5 54.0189C367.815 54.0189 373.689 53.4539 379.414 54.1386C390.71 55.4896 397.13 70.9686 390.78 81.1779C388.798 84.3659 386.079 87.0964 383.338 90.4799C387.458 98.833 391.812 107.662 396.172 116.504C388.891 119.655 384.578 118.349 381.713 112.392C378.751 106.233 375.894 100.024 372.991 93.8373C372.505 93.9436 372.019 94.0499 371.533 94.1562C371.533 99.8614 371.533 105.567 371.534 111.741ZM372.671 83.4482C377.188 83.4933 380.293 81.4492 381.501 77.0611C382.645 72.9018 382.847 68.6886 378.791 65.8979C377.31 64.8792 375.093 64.3561 373.336 64.5805C372.571 64.6782 371.63 67.2221 371.614 68.6646C371.56 73.4221 371.892 78.1839 372.671 83.4482Z" fill="#060A41"/>
<path d="M165.816 89.9167C165.699 79.274 165.668 69.1175 165.421 58.9663C165.328 55.1471 166.619 53.3811 170.638 53.7681C173.279 54.0224 175.968 53.9081 178.629 53.7985C186.024 53.4939 192.025 55.5976 195.436 62.8016C198.932 70.1884 198.674 77.2343 193.723 83.8393C192.049 86.0722 189.959 87.9926 187.777 90.3614C192.055 99.0475 196.404 107.88 201.299 117.82C196.689 117.82 193.267 118 189.889 117.695C189.034 117.618 188.088 116.11 187.577 115.067C184.657 109.109 181.873 103.085 179 97.1038C178.479 96.018 177.762 95.026 176.085 94.2013C176.085 100.095 175.98 105.991 176.126 111.881C176.209 115.237 176.666 117.996 171.591 118.018C166.833 118.038 165.049 116.795 165.374 111.865C165.844 104.733 165.699 97.5603 165.816 89.9167ZM185.042 79.4373C188.249 72.4426 186.515 65.9101 181.034 64.5056C178.082 63.7493 176.112 64.4845 176.133 68.0146C176.157 71.8319 176.331 75.6669 176.037 79.463C175.675 84.1439 178.265 83.9561 181.26 82.8361C182.578 82.3436 183.601 81.0643 185.042 79.4373Z" fill="#070B42"/>
<path d="M123.489 54.6426C124.36 54.9614 125.203 55.4127 125.553 56.1112C135.522 75.9684 145.443 95.8497 155.361 115.732C155.64 116.29 155.809 116.902 156.145 117.797C134.748 117.797 113.691 117.797 91.8721 117.797C102.395 96.6889 112.813 75.7896 123.489 54.6426ZM126.5 112.831C133.354 112.831 140.208 112.831 147.146 112.831C146.635 108.154 144.529 106.981 140.657 107.08C130.445 107.343 120.222 107.169 109.163 107.169C114.34 96.8593 119.098 87.3849 124.177 77.2713C127.533 84.0686 130.428 89.9315 133.679 96.5153C129.818 96.5153 126.85 96.7356 123.927 96.4625C119.792 96.0759 119.154 98.9213 118.177 101.83C126.179 101.83 133.947 101.83 142.395 101.83C136.325 89.6935 130.458 77.9631 124.12 65.2901C116.015 81.5105 108.376 96.7976 100.364 112.831C109.338 112.831 117.419 112.831 126.5 112.831Z" fill="#0B0F44"/>
<path d="M76.6973 105.14C82.3255 104.342 82.7268 107.644 82.914 111.513C83.1076 115.515 81.6297 117.347 77.4983 117.235C71.6809 117.077 65.8552 117.123 60.035 117.211C56.8042 117.26 55.1708 116.061 55.1956 112.622C55.3296 94.0123 55.3201 75.401 55.5947 56.7937C55.6114 55.6671 57.6157 53.651 58.7537 53.6083C66.3719 53.3224 74.0061 53.4597 82.3515 53.4597C82.5489 56.7377 82.7512 60.0967 82.9899 64.0594C77.4709 64.0594 72.5561 64.0594 67.0776 64.0594C66.859 68.6399 66.6659 72.6881 66.4378 77.4699C70.316 77.4699 73.7311 77.635 77.1228 77.4245C80.6864 77.2034 82.427 78.4604 82.2186 82.1938C82.0438 85.3269 82.7602 88.8424 77.704 88.5847C74.255 88.4089 70.7899 88.5511 66.9441 88.5511C66.9441 94.1406 66.9441 99.3684 66.9441 105.14C69.998 105.14 73.1177 105.14 76.6973 105.14Z" fill="#0B0F45"/>
<path d="M455.901 103.004C459.255 103.938 462.596 104.838 465.892 104.697C470.899 104.482 472.077 106.707 472.147 111.278C472.217 115.86 470.33 117.066 466.195 116.912C460.541 116.701 454.874 116.874 449.213 116.842C446.363 116.825 444.711 115.93 444.74 112.477C444.889 94.3502 444.846 76.222 444.785 58.0947C444.773 54.7219 446.089 53.3505 449.535 53.401C455.684 53.4909 461.841 53.3134 467.99 53.1144C471.025 53.0162 472.202 54.3546 472.036 57.2847C471.924 59.2657 472.014 61.2582 472.014 64.1882C468.07 64.1882 464.31 64.3823 460.58 64.1294C457.347 63.9103 455.96 65.1494 456.013 68.3076C456.06 71.1008 456.023 73.8955 456.023 77.1692C461.057 77.1692 465.79 77.1692 470.593 77.1692C470.875 78.5761 471.123 79.5267 471.249 80.4934C472.161 87.5267 471.566 88.1929 464.462 88.1934C461.826 88.1936 459.189 88.1935 455.868 88.1935C455.868 93.2639 455.868 97.8835 455.901 103.004Z" fill="#0A0D43"/>
<path d="M281.056 82.9989C278.729 73.2899 276.463 63.9932 273.983 53.8146C277.197 53.8146 279.863 53.44 282.344 53.9579C283.786 54.259 285.743 55.7856 286.08 57.1131C288.928 68.3388 291.446 79.6479 294.095 90.9246C294.34 91.9692 294.803 92.9626 295.556 95.0771C298.365 82.956 300.799 71.9783 303.478 61.0608C305.433 53.0931 307.118 52.3174 316.428 54.7517C315.554 58.6987 314.779 62.7102 313.772 66.6629C309.919 81.7883 306.004 96.8978 302.083 112.006C301.266 115.154 301.013 118.303 296.018 118.048C291.598 117.822 289.688 116.599 288.694 112.163C286.529 102.498 283.685 92.9856 281.056 82.9989Z" fill="#080C42"/>
<path d="M345.764 77.4578C349.901 76.5823 352.013 77.6985 352.025 81.8062C352.035 85.6457 351.696 88.4606 346.426 88.3081C336.194 88.012 336.186 88.3027 336.189 98.452C336.19 100.399 336.19 102.347 336.19 104.816C340.333 104.816 343.953 104.889 347.569 104.799C353.228 104.657 351.991 108.96 352.382 112.173C352.817 115.742 350.713 116.865 347.6 116.852C341.442 116.826 335.285 116.754 329.127 116.745C326.25 116.741 325.065 115.561 325.084 112.508C325.199 94.1994 325.09 75.8893 325.26 57.5817C325.272 56.2257 326.83 53.7496 327.743 53.7141C335.686 53.4057 343.646 53.5362 352.009 53.5362C352.219 56.9698 352.417 60.1993 352.649 63.9967C347.312 63.9967 342.399 63.9967 337.668 63.9967C334.001 75.4323 335.227 77.4597 345.764 77.4578Z" fill="#090C43"/>
<path d="M416.895 74.553C422.115 79.9304 427.47 84.683 432.078 90.0741C437.102 95.9515 437.388 103.024 433.822 109.659C430.355 116.113 424.146 118.421 416.996 117.979C414.199 117.805 411.426 117.194 408.652 116.722C405.18 116.132 404.025 114.323 404.871 110.707C406.38 104.259 406.204 104.218 412.119 107.252C416.685 109.595 421.637 108.919 423.821 105.654C426.09 102.262 425.089 96.9819 421.554 93.5543C417.499 89.6232 413.269 85.8505 409.463 81.6908C404.107 75.8368 403.839 67.1729 408.418 60.6279C412.784 54.3879 422.278 51.5175 429.237 54.6613C430.339 55.159 431.356 57.2916 431.283 58.6056C431.169 60.6547 430.09 62.6502 429.312 64.9924C425.132 65.068 420.296 60.47 417.078 65.3636C415.687 67.4797 416.752 71.2116 416.895 74.553Z" fill="#0B0F45"/>
<path d="M19.908 95.0005C19.8379 81.0948 19.8379 67.6845 19.8379 54.0527C23.4381 54.0527 26.5575 54.0527 30.539 54.0527C30.539 71.4977 30.539 88.9658 30.539 106.992C35.1543 106.992 38.9443 107.194 42.7026 106.935C46.5108 106.673 46.8176 108.907 46.4933 111.637C46.2002 114.104 47.9517 117.83 43.1087 117.838C35.643 117.85 28.1772 117.841 19.9782 117.841C19.9782 110.327 19.9782 102.911 19.908 95.0005Z" fill="#050940"/>
<path d="M265.604 116.248C265.066 116.777 264.799 117.031 264.493 117.093C254.595 119.074 254.139 118.704 254.139 108.776C254.139 91.9966 254.19 75.2164 254.091 58.4372C254.073 55.3437 254.463 52.9894 258.268 53.4851C261.367 53.8886 265.603 52.3372 265.595 58.154C265.57 77.3971 265.754 96.6405 265.604 116.248Z" fill="#0A0E44"/>
</svg>
