<svg width="1073" height="329" viewBox="0 0 1073 329" fill="none" xmlns="http://www.w3.org/2000/svg">
<path d="M249 44.9994C262.329 44.9995 275.158 44.9826 287.987 45.0041C301.988 45.0276 310.291 53.3104 310.298 67.4235C310.326 132.402 310.328 197.38 310.295 262.358C310.288 276.31 301.876 284.658 287.819 284.673C247.833 284.716 207.846 284.689 167.86 284.689C134.871 284.689 101.882 284.695 68.8932 284.687C52.9802 284.683 45.0017 276.659 45.0013 260.684C44.9998 196.706 44.9993 132.728 45.0016 68.7493C45.0022 53.0529 52.9884 45.0013 68.5606 45.0006C128.54 44.9977 188.52 44.9994 249 44.9994ZM120.976 170.936C121.021 171.398 121.066 171.859 121.16 173.166C120.941 175.655 120.694 178.141 120.509 180.632C119.591 192.983 120.837 204.961 127.372 215.812C133.268 225.602 144.009 227.297 152.879 220.013C155.016 218.258 157.001 216.318 159.251 214.286C159.928 215.129 160.537 215.888 161.086 217.304C161.375 218.121 161.664 218.939 161.266 219.929C160.973 220.014 160.667 220.073 160.392 220.197C160.292 220.242 160.193 220.548 160.21 220.559C161.45 221.378 162.691 222.196 163.953 222.979C174.511 229.527 185.382 235.317 198.304 234.891C211.059 234.47 217.592 225.83 214.835 213.332C214.378 211.261 213.685 209.243 213.075 207.109C216.085 205.795 218.966 204.537 221.847 203.28C222.01 203.556 222.174 203.832 222.337 204.107C220.96 205.265 219.583 206.422 218.003 207.75C218.813 207.858 219.382 208.122 219.773 207.959C233.63 202.202 245.873 194.374 251.959 179.915C255.713 170.997 251.561 162.533 242.421 158.879C239.698 157.79 236.807 157.121 234.157 156.311C236.761 136.652 222.653 126.428 210.94 114.951C217.109 108.965 222.153 109.082 226.638 115.953C229.41 120.201 231.743 125.025 232.983 129.918C235.089 138.23 236.176 146.799 237.688 155.271C237.988 152.974 238.409 150.685 238.567 148.378C239.455 135.382 238.428 122.7 231.368 111.286C225.501 101.801 215.266 100.171 206.599 107.187C204.324 109.028 202.255 111.123 199.91 113.268C199.213 112.411 198.609 111.668 198.071 110.369C198.665 109.611 199.26 108.853 199.854 108.095C198.884 107.725 197.915 107.354 196.898 106.302C186.42 98.17 174.79 92.7966 161.355 92.5075C150.074 92.2649 143.642 98.9809 143.879 110.13C143.928 112.43 144.262 114.725 143.355 117.208C143.108 118.547 142.862 119.885 141.53 121.233C140.889 118.719 139.445 119.058 137.583 119.95C127.129 124.956 117.717 131.352 110.599 140.64C102.849 150.75 104.694 161.842 115.013 167.828C116.851 168.894 118.985 169.449 120.976 170.936Z" fill="#015E6D"/>
<path d="M641.852 120.475C646.115 119.767 647.771 121.724 649.14 125.134C655.265 140.383 661.669 155.518 667.992 170.687C668.286 171.392 668.761 172.022 669.513 173.302C669.513 155.51 669.513 138.515 669.513 120.518C673.59 120.518 677.877 120.116 681.997 120.769C683.192 120.958 684.684 124.156 684.718 125.999C684.956 139.157 684.878 152.321 684.851 165.483C684.823 179.478 684.625 193.473 684.764 207.465C684.798 210.865 683.586 211.886 680.448 211.876C670.027 211.843 671.862 213.457 667.769 203.908C662.144 190.784 656.566 177.64 650.951 164.512C650.328 163.054 649.599 161.643 647.98 160.347C647.98 164.701 647.945 169.055 647.987 173.409C648.094 184.737 648.146 196.068 648.42 207.392C648.497 210.562 647.657 212.066 644.259 211.887C640.653 211.697 637.029 211.844 632.776 211.844C632.776 206.296 632.772 201.346 632.777 196.396C632.799 173.903 632.825 151.411 632.846 128.918C632.853 120.5 632.848 120.5 641.852 120.475Z" fill="#FFF"/>
<path d="M616.649 146.135C616.898 155.554 613.248 162.894 606.294 168.224C602.255 171.319 602.707 173.873 604.782 177.746C609.484 186.525 613.797 195.515 618.173 204.466C619.226 206.619 619.905 208.955 621.016 211.894C615.04 211.894 609.924 212.09 604.847 211.73C603.826 211.657 602.703 209.593 602.054 208.241C597.382 198.517 592.828 188.735 588.206 178.986C587.896 178.333 587.336 177.799 585.751 177.42C585.751 185.8 585.741 194.18 585.758 202.56C585.762 204.391 585.839 206.223 585.919 208.053C586.034 210.708 585.044 212.041 582.13 211.891C578.503 211.704 574.859 211.846 570.868 211.846C570.73 209.697 570.51 207.897 570.515 206.098C570.592 179.615 570.815 153.132 570.693 126.65C570.671 121.705 572.408 120.148 577.066 120.416C581.715 120.682 586.391 120.467 591.055 120.475C605.37 120.499 614.318 128.401 616.263 142.731C616.397 143.721 616.517 144.713 616.649 146.135ZM600.637 145.197C599.736 140.386 597.158 137.096 592.277 135.791C587.711 134.57 585.982 135.688 585.901 140.32C585.794 146.446 586.014 152.581 585.795 158.701C585.635 163.19 587.796 163.793 591.365 162.657C598.135 160.502 601.046 155.333 600.637 145.197Z" fill="#FFF"/>
<path d="M850.232 153.999C850.196 144.336 850.299 135.17 850.062 126.012C849.954 121.851 851.613 120.301 855.641 120.435C860.634 120.601 865.641 120.619 870.633 120.443C880.582 120.092 888.31 123.934 892.716 132.89C897.473 142.557 898.041 152.533 891.625 161.803C889.014 165.577 885.431 168.68 881.89 172.523C888.054 185.116 894.41 198.1 901.118 211.802C894.196 211.802 888.739 211.802 883.357 211.802C877.865 200.197 872.417 188.688 866.97 177.179C866.542 177.212 866.114 177.245 865.685 177.277C865.506 178.733 865.176 180.188 865.173 181.644C865.154 190.139 865.059 198.639 865.313 207.128C865.425 210.852 864.24 212.25 860.472 211.908C857.216 211.613 853.912 211.847 850.232 211.847C850.232 192.366 850.232 173.433 850.232 153.999ZM865.209 144.683C865.194 149.32 865.085 153.958 865.19 158.591C865.294 163.185 866.755 164.08 871.147 162.521C879.711 159.48 883.761 146.725 877.729 139.866C875.581 137.423 871.235 136.913 867.893 135.521C866.999 138.261 866.105 141.001 865.209 144.683Z" fill="#FFF"/>
<path d="M555.807 212.544C525.534 212.547 495.645 212.547 464.963 212.547C480.477 181.431 495.669 150.96 511.234 119.74C514.419 126.086 517.252 131.73 520.085 137.375C531.918 160.952 543.77 184.519 555.527 208.133C556.157 209.399 555.988 211.063 555.807 212.544ZM529.738 173.719C523.695 161.753 517.651 149.786 511.232 137.077C499.9 159.817 488.856 181.983 477.641 204.491C500.408 204.491 522.513 204.491 544.522 204.491C543.545 198.115 539.909 196.668 534.003 196.856C519.581 197.313 505.134 197.005 489.998 197.005C497.195 182.536 504.105 168.645 511.276 154.229C515.98 163.613 520.327 172.286 524.955 181.519C520.171 181.519 516.208 181.518 512.244 181.519C505.291 181.519 504.915 181.837 503.461 188.94C514.547 188.94 525.633 188.94 537.292 188.94C534.736 183.831 532.379 179.121 529.738 173.719Z" fill="#FFF"/>
<path d="M727.306 127.771C726.083 120.485 726.083 120.485 732.897 120.474C742.239 120.458 742.28 120.449 744.427 129.833C747.651 143.931 750.797 158.047 754.011 172.147C754.472 174.17 755.129 176.149 755.695 178.148C756.113 178.136 756.531 178.124 756.949 178.112C759.293 167.685 761.596 157.25 763.995 146.837C765.6 139.874 767.477 132.973 768.971 125.988C769.861 121.833 771.995 120.327 776.28 120.385C787.352 120.537 787.307 120.349 784.552 130.992C778.016 156.249 771.452 181.5 765.103 206.805C764.124 210.707 762.555 212.679 758.377 212.043C756.912 211.82 755.362 211.846 753.888 212.039C750.21 212.523 748.604 210.953 747.701 207.363C741.049 180.935 734.203 154.556 727.306 127.771Z" fill="#FFF"/>
<path d="M831.863 135.179C827.555 135.18 823.719 135.335 819.902 135.134C816.432 134.952 815.04 136.452 815.088 139.79C815.153 144.4 815.104 149.012 815.104 154.096C820.33 154.096 825.267 154.218 830.196 154.065C836.418 153.871 836.992 154.314 837.079 160.626C837.095 161.79 836.952 162.957 836.999 164.119C837.171 168.412 835.096 170.094 830.883 169.892C826.732 169.693 822.543 169.626 818.415 169.995C817.179 170.106 815.14 171.831 815.091 172.891C814.783 179.5 814.935 186.129 814.935 193.476C820.598 193.476 826.018 193.553 831.435 193.452C835.852 193.369 837.713 195.498 837.885 199.798C838.284 209.77 838.075 210.365 828.168 210.697C820.045 210.97 811.897 210.456 803.76 210.386C800.286 210.356 798.886 209.07 798.907 205.321C799.06 178.536 799.025 151.751 798.965 124.965C798.957 121.605 800.221 120.122 803.644 120.117C813.793 120.101 823.943 119.81 834.087 119.98C835.349 120.001 837.465 122.022 837.647 123.331C838.145 126.897 837.819 130.578 837.819 134.749C835.854 134.903 834.098 135.041 831.863 135.179Z" fill="#FFF"/>
<path d="M969.521 188.946C969.682 167.816 969.952 147.179 969.905 126.543C969.894 121.905 971.166 119.904 976.077 120.021C986.522 120.271 996.977 120.098 1007.72 120.098C1007.72 124.969 1007.72 129.708 1007.72 135.178C1002.18 135.178 996.588 135.313 991.002 135.128C987.615 135.016 986.046 136.281 986.097 139.698C986.165 144.316 986.114 148.936 986.114 154.016C991.771 154.016 997.206 154.226 1002.61 153.946C1006.53 153.743 1008.2 155.219 1008.01 159.059C1007.93 160.72 1007.93 162.39 1008 164.052C1008.18 168.305 1006.21 170.093 1001.95 169.89C997.796 169.691 993.607 169.626 989.477 169.99C988.224 170.101 986.145 171.789 986.096 172.832C985.786 179.446 985.938 186.082 985.938 193.477C991.386 193.477 996.637 193.571 1001.88 193.447C1006.1 193.347 1008.22 194.569 1008.11 199.437C1007.86 210.714 1008.09 210.826 996.778 210.808C989.141 210.795 981.506 210.362 973.867 210.255C970.8 210.212 969.946 208.772 969.955 205.907C969.971 200.418 969.678 194.928 969.521 188.946Z" fill="#FFF"/>
<path d="M428.976 145.128C428.958 148.388 428.958 151.174 428.958 154.325C434.714 154.325 439.859 154.695 444.925 154.216C449.542 153.781 451.509 155.38 451.354 159.886C451.309 161.214 451.178 162.55 451.268 163.87C451.594 168.688 449.347 170.426 444.643 170.065C440.668 169.76 436.619 169.72 432.671 170.167C431.348 170.317 429.256 172.281 429.192 173.503C428.847 180.116 429.028 186.755 429.028 193.999C434.76 193.999 440.197 194.096 445.629 193.968C450.01 193.864 452.164 195.77 452.068 200.192C452.028 202.022 452.062 203.857 452.131 205.687C452.276 209.514 450.267 211.174 446.641 211.157C437.147 211.113 427.653 211.001 418.158 210.985C414.48 210.979 412.911 209.578 412.935 205.602C413.093 178.787 413.065 151.97 413.024 125.153C413.02 121.91 414.051 120.145 417.572 120.134C427.898 120.102 438.225 119.843 448.547 119.975C449.716 119.99 451.726 121.828 451.858 122.99C452.285 126.743 452.017 130.576 452.017 135.347C447.328 135.347 442.9 135.285 438.473 135.36C429.418 135.514 429.419 135.545 428.976 145.128Z" fill="#FFF"/>
<path d="M952.719 173.344C954.37 178.68 956.819 183.666 957.058 188.756C957.623 200.768 949.423 210.605 937.484 211.839C930.877 212.522 923.994 211.193 917.31 210.249C913.238 209.674 911.259 206.972 912.733 202.607C913.104 201.51 913.294 200.354 913.624 199.243C915.586 192.627 915.774 192.554 921.369 196.056C928.237 200.356 936.405 199.868 939.981 194.945C943.742 189.768 941.51 181.226 935.58 175.881C929.54 170.437 923.532 164.867 918.199 158.751C911.284 150.821 911.966 137.321 918.984 128.823C926.119 120.184 939.532 117.062 948.781 122.153C949.986 122.816 950.888 124.891 951.023 126.393C951.16 127.919 950.244 129.572 949.666 131.124C947.348 137.339 947.471 136.849 941.19 135.014C938.071 134.104 933.436 134.186 931.121 135.956C929.012 137.568 927.957 142.3 928.543 145.237C929.227 148.666 931.765 152.036 934.256 154.732C940.101 161.057 946.398 166.965 952.719 173.344Z" fill="#FFF"/>
<path d="M361.957 125.367C361.677 121.676 363.264 120.581 366.385 120.428C377.976 119.861 378.075 119.783 378.098 131.202C378.139 151.177 378.213 171.156 377.88 191.126C377.793 196.327 379.603 197.229 384.26 196.758C389.319 196.247 394.469 196.642 400.232 196.642C400.232 201.198 400.439 205.179 400.093 209.112C400.002 210.153 398.223 211.861 397.194 211.88C385.905 212.079 374.612 212.005 361.957 212.005C361.957 183.231 361.957 154.528 361.957 125.367Z" fill="#FFF"/>
<path d="M714.014 194.995C714.031 199.493 713.923 203.498 714.107 207.489C714.236 210.306 712.956 211.521 710.345 211.557C706.365 211.611 702.383 211.571 697.89 211.571C697.736 209.832 697.448 208.067 697.443 206.301C697.36 179.31 697.365 152.319 697.201 125.329C697.178 121.44 698.515 119.95 702.437 120.097C713.485 120.509 713.678 117.881 713.766 131.016C713.908 152.176 713.937 173.336 714.014 194.995Z" fill="#FFF"/>
<path d="M161.146 216.646C160.537 215.887 159.929 215.129 159.251 214.286C157.001 216.317 155.016 218.258 152.879 220.013C144.009 227.296 133.268 225.602 127.372 215.812C120.838 204.961 119.591 192.983 120.509 180.632C120.694 178.141 120.942 175.655 121.452 172.937C122.179 176.154 122.62 179.6 123.047 183.047C124.345 193.512 126.185 203.841 132.994 212.383C138.008 218.673 142.782 218.536 148.011 212.287C136.005 200.978 122.124 190.7 125.135 171.023C123.577 170.729 122.28 170.484 120.983 170.24C118.986 169.449 116.851 168.894 115.013 167.828C104.695 161.842 102.85 150.75 110.599 140.639C117.717 131.352 127.13 124.956 137.584 119.949C139.445 119.058 140.889 118.719 142.125 121.238C142.72 121.244 143.005 121.186 143.329 121.213C148.151 120.591 145.616 118.919 144.294 117.327C144.378 117.243 144.465 117.022 144.465 117.022C144.263 114.725 143.929 112.43 143.88 110.13C143.643 98.9807 150.074 92.2647 161.355 92.5073C174.791 92.7964 186.421 98.1698 196.546 106.666C193.748 106.044 191.33 104.981 188.853 104.084C178.987 100.512 169.115 96.6225 158.344 99.7659C151.8 101.675 150.141 106.273 153.552 112.465C156.025 111.548 158.47 110.46 161.018 109.729C173.462 106.155 185.919 103.085 198.005 110.925C198.609 111.668 199.214 112.411 199.911 113.268C202.256 111.123 204.324 109.028 206.599 107.187C215.266 100.171 225.502 101.801 231.368 111.285C238.429 122.7 239.455 135.382 238.567 148.377C238.41 150.684 237.988 152.973 237.691 155.265C236.177 146.799 235.089 138.229 232.983 129.918C231.743 125.025 229.411 120.2 226.638 115.953C222.154 109.082 217.109 108.965 210.94 114.951C222.654 126.428 236.761 136.652 234.157 156.31C236.807 157.121 239.698 157.79 242.421 158.879C251.562 162.533 255.713 170.997 251.959 179.915C245.874 194.374 233.631 202.202 219.774 207.959C219.382 208.122 218.814 207.858 218.003 207.749C219.583 206.422 220.96 205.264 222.338 204.107C222.174 203.831 222.01 203.556 221.847 203.28C218.966 204.537 216.086 205.795 213.075 207.109C213.685 209.243 214.379 211.261 214.835 213.332C217.592 225.83 211.059 234.47 198.305 234.891C185.382 235.317 174.511 229.527 163.953 222.979C162.691 222.196 161.45 221.378 160.21 220.559C160.193 220.548 160.292 220.242 160.392 220.197C160.668 220.072 160.973 220.014 161.971 219.935C167.584 221.964 172.379 224.348 177.425 225.928C184.861 228.256 192.436 230.395 200.362 227.993C207.01 225.977 208.875 221.397 205.59 215.045C182.915 223.05 173.451 223.391 161.146 216.646ZM226.423 153.863C226.857 151.618 227.965 149.262 227.614 147.146C225.564 134.759 217.512 126.063 209.044 117.076C201.673 127.904 199.882 139.684 198.582 151.596C198.514 152.227 199.095 153.162 199.653 153.593C205.127 157.827 219.67 158.297 226.423 153.863ZM150.879 129.372C148.095 129.442 144.529 128.421 142.654 129.763C131.945 137.426 127.981 149.11 124.303 161.635C138.071 162.432 149.474 157.815 160.647 152.739C160.373 143.693 157.39 136.187 150.879 129.372ZM179.877 215.862C188.201 215.086 196.526 214.309 205.734 213.45C201.046 203.953 194.78 197.648 187.918 191.888C179.028 184.426 177.002 184.393 170.258 194.013C167.331 198.19 164.3 204.092 165.034 208.605C166.068 214.961 173.499 214.787 179.877 215.862ZM207.436 170.836C204.296 172.192 201.156 173.548 198.088 174.873C199.478 182.911 200.989 190.112 206.452 195.936C209.988 199.705 213.169 200.66 217.217 197.5C227.357 189.584 231.036 178.11 234.579 166.218C224.859 164.866 216.522 167.803 207.436 170.836ZM188.103 134.576C189.852 131.61 191.891 128.773 193.292 125.65C196.221 119.121 194.506 115.354 187.679 113.319C176.442 109.97 165.449 112.076 153.973 114.905C160.001 126.876 169.235 134.913 179.95 142.157C182.556 139.801 185.12 137.482 188.103 134.576ZM140.729 199.723C143.655 203.206 146.582 206.689 149.894 210.63C157.072 199.629 159.191 188.085 160.287 176.279C160.373 175.358 158.897 173.786 157.811 173.347C151.914 170.962 145.967 169.544 139.378 170.825C132.939 172.078 130.087 174.415 131.945 180.73C133.83 187.139 137.42 193.047 140.729 199.723ZM125.506 145.135C128.304 136.077 132.652 127.98 140.088 121.707C128.997 128.036 119.198 135.629 114.186 147.76C111.079 155.279 113.445 159.032 121.776 160.832C122.928 155.856 124.081 150.875 125.506 145.135ZM236.575 169.068C234.779 181.565 231.29 193.383 222.626 203.34C227.012 200.846 231.149 198.258 234.14 194.705C238.36 189.693 242.386 184.29 245.278 178.452C248.016 172.924 244.82 167.853 239.056 166.774C238.407 166.652 237.538 167.704 236.575 169.068ZM181.808 170.584C182.641 170.039 183.499 169.529 184.302 168.942C186.009 167.694 187.365 160.532 185.689 159.644C182.981 158.209 180.907 154.929 176.489 157.264C172.027 159.623 171.777 163.406 173.185 166.254C174.332 168.573 178.352 169.47 181.808 170.584Z" fill="#F7FAFA"/>
<path d="M120.979 170.588C122.28 170.484 123.577 170.729 125.135 171.023C122.124 190.7 136.005 200.978 148.01 212.287C142.782 218.536 138.008 218.673 132.994 212.383C126.185 203.841 124.345 193.512 123.047 183.047C122.62 179.599 122.179 176.154 121.428 172.514C121.067 171.859 121.021 171.397 120.979 170.588Z" fill="#0E6674"/>
<path d="M198.038 110.647C185.919 103.085 173.461 106.155 161.017 109.729C158.47 110.461 156.025 111.548 153.551 112.465C150.14 106.273 151.8 101.676 158.343 99.7661C169.114 96.6228 178.987 100.512 188.852 104.085C191.33 104.982 193.747 106.044 196.569 107.007C197.915 107.354 198.884 107.725 199.854 108.095C199.26 108.853 198.665 109.611 198.038 110.647Z" fill="#0C6473"/>
<path d="M161.116 216.974C173.451 223.39 182.915 223.049 205.59 215.045C208.875 221.397 207.01 225.977 200.362 227.992C192.436 230.394 184.861 228.255 177.425 225.927C172.379 224.347 167.584 221.964 162.315 219.847C161.664 218.938 161.375 218.121 161.116 216.974Z" fill="#0D6573"/>
<path d="M143.005 121.186C143.005 121.186 142.72 121.243 142.668 121.233C142.862 119.885 143.109 118.546 143.911 117.114C144.466 117.021 144.378 117.242 144.123 117.801C143.581 119.301 143.293 120.244 143.005 121.186Z" fill="#0C6573"/>
<path d="M226.184 154.19C219.67 158.297 205.127 157.826 199.653 153.593C199.095 153.161 198.514 152.227 198.583 151.596C199.882 139.684 201.673 127.904 209.044 117.076C217.512 126.063 225.564 134.759 227.615 147.146C227.965 149.261 226.857 151.618 226.184 154.19Z" fill="#05606F"/>
<path d="M151.117 129.661C157.39 136.188 160.374 143.693 160.647 152.739C149.475 157.815 138.071 162.432 124.304 161.635C127.982 149.11 131.946 137.426 142.654 129.763C144.529 128.421 148.095 129.442 151.117 129.661Z" fill="#05606F"/>
<path d="M179.43 215.835C173.5 214.787 166.068 214.96 165.034 208.605C164.3 204.092 167.331 198.19 170.258 194.013C177.002 184.392 179.029 184.426 187.918 191.888C194.781 197.648 201.046 203.953 205.734 213.45C196.526 214.309 188.201 215.086 179.43 215.835Z" fill="#05606F"/>
<path d="M207.793 170.679C216.522 167.803 224.859 164.866 234.579 166.218C231.037 178.11 227.357 189.583 217.217 197.5C213.169 200.66 209.988 199.705 206.452 195.936C200.989 190.112 199.479 182.911 198.088 174.873C201.156 173.548 204.296 172.192 207.793 170.679Z" fill="#04606E"/>
<path d="M187.894 134.869C185.12 137.481 182.556 139.8 179.95 142.157C169.235 134.913 160.001 126.876 153.973 114.904C165.449 112.076 176.442 109.969 187.679 113.319C194.506 115.354 196.221 119.121 193.292 125.649C191.891 128.772 189.852 131.609 187.894 134.869Z" fill="#04606E"/>
<path d="M140.496 199.449C137.419 193.047 133.83 187.139 131.944 180.73C130.086 174.415 132.938 172.078 139.378 170.826C145.966 169.544 151.914 170.962 157.81 173.347C158.896 173.786 160.372 175.358 160.287 176.279C159.191 188.085 157.071 199.629 149.893 210.631C146.582 206.689 143.655 203.206 140.496 199.449Z" fill="#04606E"/>
<path d="M125.369 145.514C124.08 150.875 122.928 155.856 121.776 160.832C113.444 159.032 111.079 155.279 114.186 147.759C119.197 135.629 128.997 128.035 140.088 121.707C132.652 127.98 128.304 136.077 125.369 145.514Z" fill="#0C6573"/>
<path d="M236.674 168.641C237.539 167.705 238.408 166.653 239.057 166.774C244.82 167.853 248.016 172.924 245.278 178.452C242.386 184.29 238.36 189.693 234.14 194.706C231.149 198.258 227.012 200.846 222.626 203.34C231.29 193.383 234.779 181.565 236.674 168.641Z" fill="#015E6D"/>
<path d="M181.453 170.791C178.352 169.471 174.332 168.573 173.186 166.254C171.778 163.406 172.027 159.623 176.49 157.264C180.907 154.929 182.981 158.21 185.69 159.645C187.365 160.532 186.009 167.694 184.302 168.942C183.5 169.529 182.642 170.039 181.453 170.791Z" fill="#076170"/>
<path d="M143.329 121.213C143.293 120.244 143.58 119.301 144.039 117.885C145.616 118.918 148.151 120.59 143.329 121.213Z" fill="#015E6D"/>
</svg>
